<?xml version="1.0" encoding="utf-8"?>
<!-- Generator: Adobe Illustrator 28.0.0, SVG Export Plug-In . SVG Version: 6.00 Build 0)  -->
<svg version="1.1" id="Layer_1" xmlns="http://www.w3.org/2000/svg" xmlns:xlink="http://www.w3.org/1999/xlink" x="0px" y="0px"
	 viewBox="0 0 864 864" style="enable-background:new 0 0 864 864;" xml:space="preserve">
<g>
	<path d="M458.27,283.18c5.77-1.73,11.7-3.07,17.26-5.33c4.37-1.78,8.38-4.54,12.36-7.16c2.06-1.36,4.69-2.69,8.67-3.68
		c1-0.25,1.84-1.58,2.54-2.56c1.69-2.4,3.18-4.95,4.9-7.33c1.21-1.66,11.11-3.67,12.66-2.4c1,0.82,2.09,2.59,1.87,3.67
		c-0.67,3.18-1.5,6.51-3.12,9.29c-5.14,8.78-11.28,17.03-15.81,26.1c-2.87,5.74-3.55,12.58-5.23,19c4.58,2.34,8.12,1.27,11.19-1.04
		c7.05-5.3,14.12-10.59,20.78-16.35c10.22-8.83,20.12-18.03,30.11-27.12c3.56-3.24,6.16-7.32,9.28-10.94
		c1.03-1.2,3.16-2.43,4.51-2.17c2.81,0.55,5.89,1.57,7.92,3.43c0.92,0.84,0.04,4.3-0.75,6.28c-3.86,9.73-7.92,19.38-11.99,29.02
		c-3.11,7.37-6.35,14.69-9.52,22.03c0.27,0.32,0.53,0.63,0.8,0.95c2.28-1.63,4.44-3.48,6.88-4.85c5.5-3.08,11.13-5.93,16.73-8.84
		c3.75-1.94,8.07-3.18,11.2-5.84c7.27-6.16,16.46-8.02,24.78-11.59c6-2.58,12.56-4.9,19.66-4.71c5.04,0.13,10.19-2.26,15.16-1.85
		c12.08,0.99,24.35-0.55,36.28,3.07c10.51,3.19,21.25,5.62,31.88,8.39c10.94,2.85,22.14,2.8,32.82,0.09
		c5.37-1.36,9.83-6.47,14.59-10.03c1.13-0.85,1.82-2.29,2.76-3.51c3.86,0.84,4.23,2.69,3.38,6.18
		c-2.49,10.27-10.85,14.08-19.16,17.53c-3.22,1.33-7.42,0.65-11.13,0.35c-9.9-0.81-20.18-0.54-29.58-3.23
		c-13.87-3.96-27.64-8.48-41.97-9.66c-10-0.83-20.24-2.27-30.36,0.75c-9.26,2.77-18.78,4.67-28.1,7.23
		c-2.61,0.71-4.92,2.46-7.42,3.62c-4.74,2.21-9.62,4.16-14.26,6.58c-4.36,2.27-8.59,4.84-12.69,7.54
		c-7.67,5.06-15.28,10.2-22.78,15.51c-5.34,3.78-8.63,8.96-10.76,15.27c-1.83,5.42-4.97,10.39-7.4,15.62
		c-1.41,3.04-2.5,6.23-3.87,9.3c-1.98,4.42-3.96,8.84-6.15,13.16c-6.9,13.59-13.57,27.31-20.95,40.64
		c-6.47,11.69-14.33,22.63-20.54,34.44c-5.76,10.93-13.61,20.32-21.5,29.37c-7.78,8.93-17.52,16.7-27.69,22.83
		c-10.15,6.11-26.51,1.64-30.27-10.33c-2.48-7.9-1.99-16.39,0.84-24.46c6.1-17.34,16.18-32.3,27.64-46.47
		c3.86-4.77,7.12-10.02,10.91-14.85c2.65-3.39,5.65-6.51,8.62-9.64c10.08-10.62,20.15-21.25,30.37-31.73
		c3.01-3.09,6.45-5.76,9.75-8.55c9-7.61,18.01-15.22,27.08-22.74c2.75-2.28,5.76-4.24,8.57-6.45c6.15-4.84,9.72-11.16,11.12-18.9
		c0.52-2.88,1.9-5.66,3.2-8.34c3.49-7.17,7.14-14.25,10.16-22.16c-1.31,0.76-2.8,1.33-3.9,2.32c-4.31,3.88-8.45,7.96-12.76,11.86
		c-9.85,8.93-20.08,17.43-31.83,23.74c-3.32,1.78-7.74,3.02-11.34,2.46c-5.4-0.85-9.64-3.69-10.66-10.48
		c-0.94-6.34-1.11-12.22,1.39-18.09c2.45-5.76,4.97-11.49,6.89-17.87c-2.1,1.32-4.11,2.82-6.32,3.92
		c-5.28,2.63-10.45,5.77-16.05,7.42c-6.78,2-13.91,2.98-20.96,3.79c-2.57,0.3-3.42,1.24-4.4,3.28
		c-5.07,10.49-11.17,20.54-20.31,27.78c-8.17,6.47-17.46,11.52-28.63,11.17c-6.18-0.19-14.86-7.32-16.48-14.27
		c-1.63-6.97-0.85-13.73,2.13-20.35c2.16-4.81,3.77-9.87,5.81-15.33c-9.99,7.6-19.6,14.8-29.08,22.16
		c-11.23,8.72-21.88,18.28-33.63,26.2c-10.29,6.93-15.51,16.71-20.06,27.42c-4.02,9.45-7.98,18.93-12.37,28.21
		c-4.88,10.29-10.22,20.36-15.37,30.52c-4.47,8.82-8.82,17.71-13.46,26.44c-2.27,4.27-4.88,8.41-7.72,12.34
		c-7.35,10.15-14.4,20.6-22.57,30.07c-6.55,7.6-14.37,14.11-24.68,16.73c-9.43,2.4-16.11-1.31-20.62-9.74
		c-4.15-7.75-1.68-14.98-0.5-22.35c1.63-10.21,6.83-18.88,12.89-27.12c6.1-8.28,11.88-16.79,17.84-25.17
		c1.09-1.53,2.34-2.96,3.61-4.35c7.8-8.47,15.43-17.11,23.5-25.32c5.9-6,12.39-11.41,18.61-17.09c4.18-3.82,8.25-7.78,12.54-11.47
		c4.67-4.02,9.61-7.72,14.28-11.75c1.66-1.43,3.28-3.21,4.22-5.16c4.04-8.36,7.93-16.8,11.65-25.31c2.51-5.75,4.46-11.76,7-17.5
		c3.23-7.3,6.83-14.42,10.21-21.65c3.15-6.74,6.22-13.51,9.96-21.64c-4.42,2.05-7.67,3.52-10.89,5.06
		c-4.71,2.26-9.26,6.08-14.12,6.51c-6.99,0.61-12.57,4.66-19.32,5.56c-11.44,1.52-22.78,3.79-34.16,5.75
		c-4.57,0.79-9.14,1.63-13.71,2.43c-0.56,0.1-1.12,0.16-1.69,0.2c-7.46,0.49-14.99,0.49-22.36,1.57
		c-11.35,1.65-22.68,3.67-33.85,6.26c-6.51,1.51-12.69,4.48-19.04,6.7c-2.79,0.97-5.94,1.22-8.43,2.65
		c-8.89,5.12-17.54,10.5-25.17,17.61c-5.23,4.88-10.28,9.74-14.78,15.3c-1.6,1.97-4.73,2.71-7.27,4.06
		c-3.16-4.5-0.84-8.05,0.96-10.98c3.01-4.89,6.61-9.36,11.56-12.76c6.01-4.13,11.52-8.98,17.24-13.52
		c7.97-6.32,17.58-9.11,26.95-12.31c10.24-3.49,20.61-6.61,31.03-9.53c4.64-1.3,9.5-1.88,14.31-2.45
		c15.64-1.85,31.33-3.28,46.93-5.4c8.7-1.18,17.32-3.17,25.86-5.25c8.12-1.98,16.3-4.04,24.07-7.04
		c8.52-3.29,16.65-7.63,24.88-11.66c4.77-2.33,7.7-6.71,11.17-10.51c1.99-2.18,4.35-4.17,6.88-5.66c2.97-1.75,6.23-1.51,8.89,0.94
		c2.61,2.41,0.43,5.04-0.46,7.11c-3.76,8.74-7.91,17.32-11.98,25.93c-5.2,10.99-10.67,21.86-15.62,32.97
		c-3.31,7.42-5.91,15.15-8.83,22.74c0.34,0.36,0.67,0.71,1.01,1.07c3.7-2.6,7.54-5.02,11.06-7.85c9.52-7.65,18.29-16.43,28.52-22.95
		c9.31-5.93,16.93-13.89,26.32-19.55c10.04-6.06,20.06-12.17,29.93-18.5c1.52-0.97,2.24-3.21,3.1-4.5c1.34,0.15,2.83,0.77,3.93,0.36
		c4.55-1.72,9.06-1.77,13.67-0.5c4.06,1.13,6.83,3.78,8.54,7.54c3.17,6.98,5.03,14.15,2.33,21.85c2.76,0.92,5.19,1.73,7.63,2.53
		L458.27,283.18z M528.85,348.13c-0.44-0.38-0.88-0.77-1.31-1.16c-9.2,11.21-22.54,17.42-32.08,28.45
		c-8.15,9.43-17.92,17.36-26.26,26.81c-13.39,15.15-26.25,30.55-36.67,47.91c-1.92,3.19-3.43,6.64-5.53,9.69
		c-5.99,8.69-9.42,18.18-9.41,28.76c0.01,6.15,2.25,9.12,8.32,10.06c2.7,0.42,6.03-0.15,8.41-1.48c5.34-2.98,10.72-5.87,14.6-11.19
		c3.36-4.61,8.85-7.7,12.07-12.38c9.43-13.71,18.24-27.84,27.19-41.87c2.07-3.25,4.43-6.59,5.35-10.21c1.16-4.58,3.68-8.07,6.2-11.8
		c2.25-3.35,4-7.06,5.76-10.7c4.55-9.38,9.08-18.78,13.44-28.25C522.36,363.29,525.55,355.68,528.85,348.13 M287.97,366.51
		c-4.12,3.58-7.47,6.53-10.87,9.44c-3.41,2.92-7.04,5.6-10.24,8.73c-4.8,4.69-9.44,9.57-13.91,14.59c-3.2,3.6-5.74,7.81-9.05,11.3
		c-4.19,4.42-8.88,8.37-13.32,12.57c-0.52,0.49-0.75,1.28-1.16,1.89c-1.85,2.77-3.64,5.59-5.6,8.28
		c-3.97,5.44-8.3,10.64-12.01,16.26c-4.09,6.19-8.33,12.43-11.22,19.2c-2.37,5.55-3.68,11.87-3.95,17.91
		c-0.33,7.56,4.85,10.39,11.61,7.34c7.54-3.4,13.45-9.16,18.21-15.41c8.16-10.7,15.38-22.16,22.36-33.68
		c6.08-10.04,11.34-20.59,16.87-30.96c3.76-7.06,7.35-14.21,11.03-21.32c2.66-5.13,5.53-10.16,7.92-15.41
		C286.04,374.15,286.69,370.71,287.97,366.51 M416.33,272.6c-8.87,5.04-14.35,12.99-18.76,21.54c-3.45,6.69-4.57,14.17-4.79,21.78
		c-0.19,6.51,3.1,10.08,9.48,8.27c8.16-2.32,15.74-6.23,20.81-13.43c3.4-4.83,6.31-10.01,9.34-15.1c2.37-3.98,2.11-4.22-1.79-6.85
		c-4.01-2.7-8.91-4.41-11.14-9.27C418.47,277.35,417.48,275.14,416.33,272.6 M437.85,279.9c4.3-4.3,1.68-9.13,0.74-13.6
		c-0.28-1.32-2.96-2.88-4.61-2.97c-1.76-0.1-4.78,1.07-5.14,2.3c-0.51,1.77,0.4,4.43,1.58,6.1
		C432.42,274.57,435.09,276.93,437.85,279.9 M467.96,478.34c0.08-0.36,0.3-0.75,0.21-1.05c-0.06-0.21-0.53-0.3-0.82-0.45
		c-0.09,0.32-0.34,0.71-0.24,0.94C467.22,478.03,467.66,478.16,467.96,478.34 M554.51,305.25c-0.37-0.28-0.71-0.56-1.08-0.79
		c-0.04-0.03-0.38,0.27-0.36,0.29c0.22,0.4,0.48,0.79,0.73,1.18C553.98,305.74,554.17,305.56,554.51,305.25 M343.61,257.54
		c0,0.1,0,0.2,0,0.3c0.59-0.01,1.19-0.02,1.78-0.02c0-0.1,0-0.2,0-0.3C344.8,257.52,344.21,257.53,343.61,257.54"/>
	<path d="M156.03,281.6c-3.42-2.8-3.8-6.22-2.94-9.78c1.16-4.79,1.65-9.4,0.88-14.43c-0.52-3.41,1.47-7.16,2.16-10.79
		c0.4-2.13,0.49-4.32,0.67-6.49c0.08-0.94-0.26-1.99,0.07-2.81c2.18-5.45,4.67-10.78,6.71-16.28c1.6-4.33,2.42-8.95,4.09-13.25
		c2.61-6.74,5.55-13.36,8.54-19.95c1.74-3.84,4.03-7.44,5.79-11.28c4.56-9.96,11.44-18.29,18.26-26.7c2.08-2.56,3.65-5.54,5.63-8.2
		c1.56-2.08,3.17-5.29,5.17-5.63c3.81-0.65-0.13-5.27,3.43-5.22c7.24-9.81,17.27-16.93,25.36-25.68c7.8-8.43,17.96-13.2,25.84-21.12
		c2.31-2.32,5.46-5.76,10.08-4.29c0.69,0.22,2.1-0.36,2.51-1c3.62-5.53,9.3-7.84,15.03-10.31c4.09-1.77,7.78-4.43,11.78-6.45
		c2.31-1.17,4.81-2.38,7.32-2.63c5.68-0.58,10.48-2.97,15.08-6.01c1.92-1.27,3.79-2.44,6.19-1.02c0.49,0.29,1.41,0.18,2.01-0.06
		c7.43-2.97,14.92-5.55,22.99-6.35c2.27-0.22,4.29-2.39,6.6-2.88c7.39-1.57,14.83-2.98,22.31-4.07c7.95-1.15,15.95-1.98,23.95-2.72
		c3.47-0.32,7-0.23,10.48-0.01c7.97,0.49,15.92,1.11,23.87,1.8c2.1,0.18,3.98,1.9,6.34,0.1c0.97-0.74,2.95-0.36,4.43-0.19
		c6.59,0.76,13.24,1.25,19.72,2.55c10.97,2.2,21.81,4.99,32.73,7.42c3.65,0.82,7.83,0.46,10.97,2.14
		c7.97,4.26,17.05,5.28,24.97,9.36c1.91,0.99,3.24,3.11,4.36,4.22c2.49,0.7,4.89,0.98,6.89,2.03c6.59,3.45,13.09,7.08,19.5,10.85
		c2.77,1.63,5.27,3.73,7.85,5.66c7.65,5.74,15.61,11.14,22.84,17.37c6.34,5.47,11.61,12.17,17.79,17.84
		c8.6,7.89,14.2,18.22,22.33,26.46c0.77,0.78,1.89,1.82,1.84,2.68c-0.23,4.02,2.55,5.98,4.92,8.41c0.92,0.94,1.01,2.69,1.62,4.47
		c0.15,0.06,1.78,0.2,2.23,1c3.66,6.49,7.1,13.11,10.6,19.69c2.44,4.6,4.9,9.19,7.29,13.81c0.5,0.96,0.83,2.03,1.08,3.08
		c0.96,3.95,1.41,8.09,2.88,11.84c1.85,4.74,4.02,9.25,3.52,14.56c-0.11,1.17,0.78,2.44,1.25,3.65c4.35,11.28,6.35,22.93,5.89,35.95
		c-2.89-1.04-5.08-1.83-7.28-2.63c-1.18-7.75-1.77-15.41-6.02-22.07c-0.46-0.72-0.45-1.84-0.41-2.76c0.35-7.98-3.31-14.51-7.03-21.2
		c-2.31-4.15-3.64-8.93-4.94-13.56c-2.42-8.6-6.9-15.96-12.1-23.13c-2.89-3.99-4.31-9.02-6.67-13.43c-1.02-1.92-2.44-3.96-4.22-5.07
		c-3.19-1.99-4.16-4.65-3.79-8.26c-6.8-2.2-8.72-8.9-12.86-13.55c-1.81-2.04-3.81-3.92-5.78-5.8c-1.82-1.73-3.48-3.25-4.82-5.69
		c-2.35-4.24-6.25-7.75-9.93-11.1c-6.04-5.5-11.88-11.52-18.78-15.72c-10.61-6.46-19.81-15.24-31.82-19.46
		c-3.24-1.14-6.2-3.25-9.08-5.22c-5.47-3.75-11.36-6.13-17.97-6.97c-2.27-0.29-4.39-1.61-6.6-2.42c-6.22-2.27-12.29-5.16-18.69-6.63
		c-10.26-2.37-20.75-3.75-31.13-5.64c-8.94-1.63-17.8-3.73-26.79-4.97c-5.34-0.73-10.98-0.97-16.24-0.03
		c-6.12,1.09-11.88-0.33-17.76-0.8c-3.37-0.27-6.48-1.08-9.68,0.97c-1.45,0.93-3.59,0.76-5.43,1.09c-4.96,0.87-9.93,1.72-14.9,2.6
		c-6.34,1.11-12.69,2.17-19.01,3.4c-1.97,0.39-3.84,1.27-5.74,1.94c-1.06,0.38-2.41,1.43-3.11,1.1c-4.55-2.19-7.62,0.73-11.12,2.66
		c-2.82,1.55-5.73,2.39-9.28,2.4c-3.43,0.01-6.83,2.6-10.27,4c-2.05,0.84-4.14,1.6-6.24,2.33c-0.7,0.24-1.85-0.01-2.16,0.42
		c-5.17,7.29-14.6,7.09-21.13,12.17c-5.34,4.15-11.63,7.06-17.37,10.72c-1.71,1.09-2.84,3.04-4.48,4.25
		c-4.95,3.66-10.21,6.92-14.99,10.78c-3.46,2.79-7.34,5.26-9.54,9.47c-0.7,1.33-2.54,2.01-3.69,3.16
		c-3.59,3.58-7.44,6.96-10.52,10.94c-2.34,3.03-7.88,3.37-7.37,8.72c-4.37,1.41-5.6,5.61-7.95,8.84c-2.37,3.27-5.55,6.08-7.3,9.63
		c-2.4,4.87-6.07,8.51-9.54,12.43c-0.82,0.93-1.14,2.31-1.67,3.49c-2.31,5.14-4.49,10.24-8.05,14.82
		c-2.24,2.88-2.73,7.11-4.06,10.71c-2.15,5.87-3.44,12.3-6.73,17.44c-4.84,7.56-6.81,15.77-8.66,24.21
		c-0.31,1.41-0.99,3.01-2.04,3.91c-1.8,1.55-1.78,3.39-1,4.99c1.56,3.2,0.37,5.94-1.25,8.38c-1.82,2.74-2.45,5.4-2.58,8.74
		C161.95,272.69,160.35,277.71,156.03,281.6 M244.12,107.27c0.34-0.02,0.68-0.05,1.03-0.07l-0.05-3.48
		c-0.41,0.02-0.82,0.05-1.23,0.07C243.95,104.94,244.03,106.1,244.12,107.27 M409.02,44.47c0.32,0.21,0.63,0.42,0.95,0.63
		c0.58-0.82,1.16-1.64,1.74-2.46c-0.22-0.18-0.44-0.35-0.66-0.53C410.38,42.9,409.7,43.69,409.02,44.47 M552.6,68.67
		c-0.34-0.4-0.64-0.81-1.02-1.12c-0.07-0.06-0.49,0.32-0.74,0.49c0.28,0.39,0.52,0.82,0.87,1.14
		C551.78,69.24,552.24,68.88,552.6,68.67 M559.4,75.76c0-0.22-0.01-0.44-0.01-0.66c-0.74,0.01-1.49,0.02-2.23,0.03
		c0,0.22,0.01,0.44,0.01,0.66C557.91,75.79,558.66,75.78,559.4,75.76 M669.42,203.96c-0.19-0.23-0.37-0.45-0.56-0.68
		c-0.06,0.13-0.21,0.3-0.17,0.37c0.14,0.26,0.35,0.48,0.53,0.71C669.29,204.23,669.35,204.1,669.42,203.96 M566.46,76.28
		c0.04,0.25,0.07,0.49,0.1,0.73c0.59-0.1,1.19-0.2,1.78-0.3c-0.03-0.21-0.06-0.42-0.09-0.62C567.65,76.15,567.06,76.21,566.46,76.28
		 M573.69,79.11c-0.25-0.11-0.68-0.35-0.73-0.3c-0.21,0.25-0.3,0.6-0.44,0.91l0.89,0.33C573.5,79.74,573.6,79.43,573.69,79.11
		 M264.82,92.24c-0.25-0.14-0.49-0.28-0.73-0.42c-0.11,0.26-0.25,0.52-0.31,0.79c-0.01,0.06,0.28,0.28,0.31,0.26
		C264.34,92.69,264.57,92.47,264.82,92.24 M605.59,101.68c-0.42,0.28-0.86,0.44-0.88,0.63c-0.03,0.31,0.17,0.7,0.4,0.94
		c0.1,0.1,0.75-0.12,0.75-0.17C605.81,102.64,605.7,102.2,605.59,101.68 M197.21,160.27c-0.15,0.2-0.35,0.45-0.5,0.72
		c-0.02,0.04,0.27,0.36,0.36,0.33c0.31-0.07,0.6-0.25,0.9-0.38C197.72,160.72,197.46,160.49,197.21,160.27"/>
	<path d="M239.28,498.46c5.57-2.31,5.87-2.33,9.42,2c7.21,8.76,16.43,14.97,25.87,20.98c2.78,1.77,6.35,2.44,7.9,6.49
		c0.67,1.75,4.88,1.97,7.29,3.25c7.3,3.9,14.42,8.13,21.78,11.91c3.64,1.87,7.56,3.32,11.5,4.41c3.06,0.85,6.4,0.73,8.25,3.99
		c0.15,0.27,0.61,0.43,0.96,0.5c5.78,1.14,11.59,2.17,17.35,3.4c5.23,1.12,10.38,2.61,15.62,3.64c10.43,2.03,20.85,4.28,31.37,5.64
		c8.32,1.08,16.79,1.25,25.19,1.31c6.56,0.05,13.13-0.73,19.7-1.06c1.85-0.09,3.73,0.24,5.56,0.07c2.16-0.2,4.29-0.72,6.43-1.13
		c1.82-0.35,3.64-0.73,5.45-1.11c8.17-1.71,16.34-3.41,24.51-5.14c0.73-0.15,1.46-0.77,2.12-0.68c8.34,1.19,14.77-3.89,21.93-6.58
		c5.7-2.15,11.51-4.03,17.18-6.27c3.78-1.49,7.36-3.46,11.07-5.14c2.48-1.12,5.05-2.05,7.54-3.15c1.52-0.67,3.03-1.4,4.43-2.29
		c5.36-3.41,10.67-6.9,16.02-10.33c1.41-0.91,3.19-1.41,4.32-2.57c6.54-6.75,15.28-10.57,22.22-16.71
		c9.04-7.99,17.74-16.37,26.58-24.59c0.27-0.25,0.49-0.57,0.73-0.87c7.85-9.98,15.82-19.86,23.46-29.99c2.44-3.23,3.67-7.36,6-10.69
		c8.36-11.91,13.55-25.43,19.57-38.48c3.37-7.31,4.72-15.55,7.14-23.33c0.86-2.78,2.27-5.39,3.24-8.15c0.48-1.37,0.53-2.9,0.74-4.35
		c0.96-6.61,1.03-13.45,5.37-19.14c0.41-0.53,0.45-1.59,0.26-2.3c-2.19-8.37,0.7-16.45,1.33-24.66c0.21-2.76,0.51-5.53,0.91-8.27
		c0.19-1.3,0.38-3.24,1.18-3.64c1.09-0.54,3.25-0.37,4.09,0.41c1.39,1.28,2.86,3.26,2.96,5.02c0.58,10.82-0.13,21.61-1.77,32.31
		c-1.61,10.51-3.16,21.04-5.27,31.46c-0.87,4.31-3.18,8.32-4.71,12.51c-0.73,2-1.16,4.12-1.7,6.18c-0.7,2.68-0.78,5.76-2.2,7.98
		c-2.67,4.16-4.34,8.52-5.67,13.25c-0.85,3.01-3.45,5.5-4.89,8.4c-2.06,4.14-3.59,8.54-5.69,12.65c-1.98,3.87-4.21,7.64-6.68,11.21
		c-2.4,3.45-5.39,6.49-7.85,9.9c-2.26,3.13-3.9,6.73-6.28,9.76c-4.11,5.24-8.61,10.19-12.9,15.29c-1.18,1.41-2.2,2.95-3.33,4.41
		c-1.83,2.37-3.46,4.94-5.57,7.03c-5.29,5.28-10.65,10.51-16.24,15.46c-4.88,4.32-9.67,9.1-15.33,12.07
		c-4.39,2.3-7.45,5.51-11.03,8.53c-4.06,3.43-9.01,5.8-13.62,8.56c-5.6,3.35-11.14,6.82-16.9,9.85c-3.25,1.71-7.01,2.4-10.35,3.96
		c-4.52,2.1-8.69,5.05-13.32,6.81c-6.25,2.37-12.77,4.09-19.25,5.83c-7.33,1.97-14.76,3.6-22.12,5.5c-3.92,1.01-7.7,2.73-11.67,3.34
		c-10.2,1.55-20.45,3.57-30.71,3.69c-10.22,0.11-20.47,1.12-30.67,0.4c-10.27-0.73-20.49-2.13-30.71-3.42
		c-5.84-0.74-11.64-1.84-17.46-2.77c-0.55-0.09-1.15-0.06-1.67-0.25c-5.9-2.21-11.92-3.53-18.17-4.66
		c-8.46-1.53-16.42-5.84-24.56-9.02c-6.77-2.65-13.5-5.39-20.25-8.12c-0.52-0.21-1-0.53-1.47-0.84c-6.84-4.5-13.69-8.98-20.5-13.52
		c-7.19-4.79-14.86-9.05-21.32-14.69c-4.18-3.65-9.42-6.54-12.01-12.06C238.52,504.67,237.13,501.83,239.28,498.46 M336.43,560.69
		c0.34,0.23,0.61,0.44,0.91,0.6c0.04,0.02,0.34-0.3,0.32-0.33c-0.17-0.25-0.35-0.53-0.6-0.65
		C336.95,560.26,336.67,560.54,336.43,560.69 M357.18,559.97c-0.25-0.14-0.49-0.31-0.75-0.4c-0.06-0.02-0.34,0.3-0.31,0.37
		c0.11,0.25,0.32,0.46,0.49,0.68C356.81,560.41,356.99,560.2,357.18,559.97 M286.36,534.76c-0.34,0.55-0.71,0.98-0.64,1.07
		c0.29,0.37,0.69,0.67,1.1,0.91c0.06,0.04,0.6-0.51,0.57-0.58C287.12,535.68,286.75,535.26,286.36,534.76 M662.54,415.08
		c0.02,0.22,0.04,0.43,0.06,0.65l1.94-0.15c-0.02-0.24-0.04-0.48-0.07-0.72C663.82,414.94,663.18,415.01,662.54,415.08
		 M570.59,529.22c-0.15-0.23-0.27-0.62-0.44-0.64c-0.28-0.04-0.6,0.15-0.9,0.25c0.18,0.35,0.36,0.69,0.54,1.04
		C570.05,529.66,570.3,529.46,570.59,529.22"/>
	<path d="M194.89,271.14c-2.6-11.74,1.26-20.6,6.79-29.17c-0.4-0.3-1.71-0.97-1.63-1.28c2.05-7.99,3.43-16.05,7.63-23.53
		c5.81-10.34,10.26-21.44,15.58-32.08c2.09-4.17,4.57-8.26,7.49-11.88c7.59-9.39,15.16-18.86,23.44-27.65
		c10.38-11.02,22.18-20.54,34.95-28.69c11.33-7.23,22.61-14.67,34.61-20.62c8.61-4.27,18.28-6.54,27.63-9.1
		c6.66-1.83,14.01-1.66,20.3-4.22c6.6-2.69,13.65-1.32,20.02-3.99c0.68-0.28,1.46-0.44,2.19-0.46c12.15-0.27,24.31-0.7,36.46-0.69
		c8.06,0.01,16.15,0.29,24.16,1.12c10.35,1.07,20.65,2.72,30.94,4.35c2.35,0.37,4.52,1.74,6.82,2.49c1.87,0.62,3.8,1.08,5.73,1.48
		c1.63,0.34,3.65-0.03,4.9,0.8c9.38,6.25,20.74,7.67,30.62,12.82c9.38,4.89,18.86,9.38,26.85,16.54
		c7.38,6.62,14.91,13.08,22.65,19.27c9.47,7.57,17.05,16.82,24.49,26.24c0.33,0.41,0.28,1.21,0.65,1.5c4.51,3.47,7.3,8.13,9.9,13.12
		c3.64,7,8.12,13.56,11.79,20.54c6.01,11.44,11.28,23.25,14.81,35.71c0.55,1.93-0.77,4.39-1.45,7.69
		c-3.39-5.46-6.03-9.72-8.78-14.15c1.7-3,1.09-6.13-0.88-9.2c-5.77-9.04-11.01-18.48-17.45-27.01c-3.19-4.23-5.08-8.85-7.5-13.33
		c-0.79-1.46-1.65-2.94-2.73-4.19c-6.72-7.73-13.67-15.28-20.23-23.14c-4.9-5.87-9.53-11.9-16.68-15.26
		c-0.33-0.16-0.63-0.42-0.88-0.7c-10.71-11.82-25.36-17.47-38.92-24.8c-5.15-2.79-10.33-6.38-15.89-7.37
		c-8.96-1.6-16.94-6.14-25.91-7.38c-1.99-0.27-3.89-1.1-5.86-1.58c-3.8-0.93-7.57-2.03-11.42-2.67c-10.14-1.68-20.31-3.26-30.5-4.65
		c-4.74-0.65-9.87-2-14.28-0.89c-8.56,2.16-17.34,0.27-25.81,2.52c-3.36,0.89-7,0.92-10.52,1.01c-12.77,0.33-24.52,4.82-36.43,8.69
		c-8.32,2.7-16.7,5.26-24.91,8.29c-5.15,1.9-10.23,3.69-14.79,7.4c-5.58,4.53-12.65,7.17-18.72,11.17
		c-7.14,4.7-14.09,9.74-20.78,15.07c-5.5,4.38-10.8,9.1-15.62,14.2c-5.85,6.19-10.62,13.46-16.77,19.31
		c-8.34,7.94-12.1,18.94-19.7,27.27c-0.62,0.68-1.18,1.49-1.52,2.34c-4.21,10.42-8.99,20.66-12.37,31.35
		c-2.63,8.31-7.03,16.06-7.6,25.14C199.52,262.7,196.88,266.37,194.89,271.14 M228.41,181.13c-0.18-0.21-0.36-0.41-0.55-0.62
		c-0.33,0.43-0.72,0.82-0.98,1.28c-0.23,0.41-0.3,0.9-0.45,1.35c0.16,0.09,0.32,0.17,0.48,0.26
		C227.41,182.64,227.91,181.88,228.41,181.13 M330.56,100.91c-0.24,0.19-0.48,0.38-0.72,0.57c0.15,0.06,0.35,0.2,0.45,0.15
		c0.25-0.13,0.46-0.34,0.69-0.52C330.84,101.04,330.7,100.97,330.56,100.91 M566.07,127.4c0,0.16,0,0.32,0.01,0.48
		c0.59-0.01,1.17-0.02,1.76-0.02c0-0.16-0.01-0.32-0.01-0.48C567.24,127.39,566.66,127.4,566.07,127.4"/>
	<path d="M263.52,467.9c8.32,6.95,16.34,13.94,24.7,20.5c3.85,3.02,8.22,5.5,12.67,7.57c2.01,0.93,1.49,4.29,5.07,3.83
		c2.08-0.27,4.51,2.36,6.83,3.59c2.29,1.21,4.64,2.29,6.95,3.46c2.31,1.17,4.58,2.44,6.92,3.55c2.38,1.14,4.81,2.17,7.24,3.2
		c9.55,4.06,19.14,7.89,29.43,9.82c11.71,2.2,23.26,5.69,35.06,6.94c8.73,0.93,17.53,2.6,26.56,1.38
		c9.82-1.33,19.87-0.99,29.69-2.29c6.14-0.81,12.03-3.4,18.07-5.05c6.64-1.82,13.33-3.47,19.99-5.23c0.89-0.23,1.76-0.61,2.59-1.02
		c4.83-2.4,9.47-5.29,14.5-7.14c9.5-3.5,18.51-7.71,26.84-13.59c4.67-3.3,10.5-4.93,15.21-8.17c5.64-3.88,10.63-8.7,15.92-13.09
		c0.99-0.82,1.98-1.71,3.12-2.28c6.26-3.11,10.59-8.33,15.05-13.45c2.07-2.38,4.57-4.39,6.61-6.8c2.04-2.4,3.54-5.28,5.64-7.61
		c8.55-9.47,14.25-20.79,21.03-31.43c4.71-7.4,9.57-14.58,11.35-23.36c0.13-0.66,0.93-1.16,1.32-1.79c3.1-5.02,7.01-9.54,6.54-16.24
		c-0.19-2.69,2.26-5.46,2.93-8.33c3.32-14.42,6.54-28.87,9.59-43.35c0.76-3.63,0.65-7.44,1.17-11.14c0.27-1.94,1.03-3.82,1.57-5.73
		c0.55-0.04,1.11-0.07,1.66-0.11c0.52,2.11,1.56,4.24,1.48,6.33c-0.79,19.67-2.43,39.27-7.5,58.36c-2.19,8.24-5.01,16.34-8.08,24.29
		c-1.78,4.62-4.51,8.9-7,13.22c-5.18,8.96-10.4,17.89-15.76,26.74c-3.66,6.05-7.4,12.07-11.42,17.88c-1.91,2.76-4.59,4.97-6.86,7.49
		c-6.94,7.69-15,14.11-23,20.61c-3.98,3.23-7.36,7.28-11.55,10.17c-7.95,5.47-16.29,10.38-24.48,15.52c-2.54,1.6-5,3.37-7.68,4.71
		c-4.48,2.24-9.08,4.24-13.66,6.27c-9.38,4.15-18.71,8.42-28.2,12.28c-4.97,2.02-10.14,4-15.4,4.77
		c-14.65,2.17-28.9,7.24-44.07,5.92c-3.4-0.3-7.01,1.7-10.41,1.4c-15.35-1.38-30.77-2.54-45.94-5.09
		c-13.32-2.24-26.41-6.05-38.8-11.76c-6.75-3.11-13.48-6.29-20.17-9.55c-8.06-3.93-16.16-7.8-24.06-12.04
		c-3.28-1.76-6.13-4.35-9.06-6.7c-6.98-5.62-13.96-11.25-20.8-17.05C259.39,475.32,259.54,471.86,263.52,467.9"/>
	<path d="M350.59,697.31c0.33-3.08,0.86-5.91,0.88-8.74c0.09-11.11,0.06-22.23-0.03-33.35c-0.04-5.38,0.12-5.67,5.61-5.73
		c0.94-0.01,1.89,0.07,2.83,0c3.01-0.24,3.92,1.29,3.9,4.09c-0.04,7.26,0.14,14.52,0.15,21.78c0.03,14.52,0.01,29.04,0.01,43.48
		c-7.98,3.43-9.29,2.87-14.67-3.84c-8.92-11.12-18.14-21.99-27.15-33.03c-3.19-3.9-6.14-8-9.28-12.11v49.79
		c-1.88,0.36-4.16,1.16-6.45,1.17c-4.39,0.01-5.69-1.35-5.68-5.77c0.02-16.76,0.15-33.51,0.19-50.27c0.01-2.67-0.23-5.35-0.37-8.02
		c-0.14-2.68-0.4-5.76,2.63-6.77c2.54-0.85,5.52-1.3,7.82,1.32c4.72,5.36,9.64,10.55,14.28,15.98
		C333.78,677.22,342.16,687.3,350.59,697.31 M306.41,671.2c0.24,0.21,0.46,0.42,0.72,0.6c0.02,0.01,0.35-0.29,0.32-0.36
		c-0.14-0.33-0.35-0.62-0.54-0.92C306.75,670.74,306.58,670.97,306.41,671.2"/>
	<path d="M586.57,802.05c0-7.93-0.03-15.86,0.01-23.79c0.03-5.62,0.04-11.24,0.25-16.85c0.15-3.8,2.18-5.35,5.84-4.86
		c1.82,0.24,3.64,0.51,5.82,0.81v68.53c-5.81,1.72-9.84,0.26-13.49-4.42c-6.91-8.87-14.51-17.2-21.57-25.95
		c-4.81-5.96-9.18-12.27-14.54-19.48c0,5.72-0.1,10.39,0.02,15.05c0.26,9.92,0.73,19.83,0.92,29.75c0.1,5.38-5.93,8.67-10.52,5.64
		c-1.2-0.79-1.93-3.11-1.94-4.74c-0.11-10.84,0.07-21.68,0.08-32.51c0.01-8.53,0.09-17.06-0.22-25.58c-0.09-2.46-1.36-5.42,1.8-6.11
		c2.66-0.58,6.41-0.58,8.34,0.9c3.97,3.04,7.17,7.12,10.45,10.99c9.2,10.86,18.28,21.83,27.41,32.75L586.57,802.05z"/>
	<path d="M675.14,694.21c5.17,8.22,12.11,15.05,15.54,23.97c-5.77,4.46-11.66,3.82-15.38-1.57c-3.82-5.55-7.63-11.12-11.1-16.89
		c-1.67-2.78-3.49-4.04-6.79-3.64c-2.74,0.34-5.55,0.07-8.89,0.07c0,5.51-0.05,10.54,0.01,15.56c0.11,9.37-2.16,10.94-12.41,7.8
		c0-7.25,0-14.72,0-22.21c0.01-12.67,0.02-25.34,0.03-38.01c0-1.51,0.06-3.02,0.04-4.52c-0.03-3.58,1.13-5.55,5.32-5.31
		c9.94,0.55,19.91,0.47,29.84,1.11c10.21,0.65,17.74,7.2,19.23,16.01c2.16,12.79-1.34,20.14-11.96,25.26
		C677.48,692.38,676.51,693.27,675.14,694.21 M648.48,685.41c1.79,0.31,3.25,0.77,4.71,0.76c6.47-0.03,13.05,0.6,19.07-2.68
		c4.82-2.62,6.69-6.8,5.92-13.27c-0.46-3.94-4.18-8.33-7.86-9.35c-7.07-1.96-14.21-1.18-21.83-0.91V685.41z"/>
	<path d="M181.51,826.37v-69.15c5.14-0.33,10.12-1.07,15.06-0.86c7.65,0.33,15.41,0.6,22.86,2.16c12.94,2.7,20.61,11.91,22.43,24.96
		c1.03,7.32,1.9,14.73-0.81,21.72c-4.23,10.92-12.26,17.86-23.94,19.99C205.48,827.31,193.76,828.02,181.51,826.37 M193.38,815.99
		c5.86,0,11.16,0.31,16.41-0.06c10.67-0.75,16.78-5.68,19.12-15.04c0.59-2.35,1.07-4.77,1.2-7.18c0.75-14.23-3.07-21.71-13.6-24.85
		c-7.16-2.14-15.14-1.5-23.12-2.13V815.99z M189.74,817.48c-0.41,0.38-0.85,0.68-1.14,1.09c-0.09,0.12,0.23,0.54,0.36,0.81
		c0.4-0.29,0.87-0.53,1.17-0.9C190.23,818.37,189.92,817.9,189.74,817.48"/>
	<path d="M261.98,691.18h-17.89v-8.98c8.17-0.25,16.3-0.84,24.42-0.62c4.8,0.13,5.95,2.18,5.85,7.06
		c-0.11,5.05-0.15,10.09-0.22,15.14c-0.06,4.05-0.89,7.6-4.58,10.17c-12.89,8.97-34.92,10.63-48.73,1.02
		c-7.47-5.19-11.29-12.94-13.18-21.58c-2.05-9.36-1.06-18.65,3.42-27.05c4.82-9.04,12.9-14.41,22.85-16.83
		c11.14-2.71,21.56-0.24,31.63,4.52c6.58,3.11,6.98,4.89,2.41,10.39c-0.48,0.58-0.99,1.13-1.25,1.41
		c-6.59-2.22-12.76-5.05-19.23-6.31c-14.68-2.87-27.82,7.74-28.31,22.54c-0.32,9.83,2.16,18.69,10.66,24.63
		c8.25,5.76,21.59,5.42,29.81-0.54c1.15-0.83,2.1-2.59,2.24-4.01C262.2,698.81,261.98,695.43,261.98,691.18"/>
	<path d="M509.52,764.98c-0.83,1.78-1.53,3.46-2.39,5.06c-1.63,3.04-3.49,3.54-6.81,1.66c-7.77-4.4-15.98-7.01-25.2-4.49
		c-7.93,2.17-13.04,6.97-15.85,14.56c-2.04,5.52-3.03,11.2-0.97,16.78c2,5.43,4.23,10.96,9.58,14.22c7.8,4.74,16.04,5.5,24.63,2.53
		c1.77-0.61,3.51-1.37,5.12-2.32c0.91-0.53,2.15-1.58,2.14-2.38c-0.02-3.77-0.43-7.53-0.71-11.54H482.3
		c-0.28-1.27-0.64-2.31-0.73-3.36c-0.51-5.68,0.4-6.71,5.97-6.74c6.23-0.04,12.46,0.12,18.68-0.08c3.66-0.12,5.23,1.41,5.2,4.94
		c-0.05,6.79,0.05,13.58-0.19,20.36c-0.05,1.44-0.9,3.19-1.96,4.19c-10.37,9.9-23.22,10.88-36.25,8.57
		c-17.07-3.04-26.73-15.27-27.47-32.83c-0.39-9.24,0.69-18.02,6.96-25.41c6.53-7.69,14.94-11.65,24.86-12.67
		C488.9,754.82,499.38,757.46,509.52,764.98 M470.11,822.2c-0.05-0.15-0.1-0.29-0.16-0.44c-0.25,0.13-0.51,0.26-0.75,0.41
		c-0.02,0.01,0.1,0.31,0.11,0.31C469.58,822.4,469.85,822.3,470.11,822.2"/>
	<path d="M398.98,720.55h-11.2c0.37-2.55,0.27-4.79,1.04-6.66c8.32-19.95,16.78-39.85,25.23-59.74c1.52-3.59,4.51-4.47,8.21-4.73
		c4.36-0.31,6.74,1.9,8.32,5.36c3.11,6.79,6.03,13.68,9.05,20.52c5.55,12.58,11.12,25.15,16.66,37.74c1.08,2.46,3.53,5.07,0.24,7.47
		c-2.59,1.88-10.4,0.15-11.73-2.51c-1.67-3.34-3.08-6.82-4.47-10.3c-1.3-3.25-2.67-4.67-7.01-4.26c-7.23,0.68-14.63-0.76-21.94-0.58
		c-2.22,0.05-5.48,0.16-6.64,3.88C403.26,711.5,400.92,716.01,398.98,720.55 M422.06,665.3c-4.03,9.66-7.57,18.12-11.33,27.13h23.22
		C429.95,683.32,426.27,674.89,422.06,665.3 M451.25,710.15c-0.62-0.55-0.97-0.95-1.41-1.19c-0.14-0.08-0.76,0.33-0.74,0.42
		c0.09,0.43,0.24,1.07,0.55,1.19C449.99,710.7,450.52,710.36,451.25,710.15"/>
	<path d="M546.47,650.59c2.37-0.4,4.34-1,6.32-1.01c4.78-0.04,5.9,1.11,5.94,5.96c0.09,12.57,0.04,25.14,0.15,37.71
		c0.12,13.53,9.38,18.01,19.94,17.22c11.28-0.84,16.14-6.7,16.46-18.15c0.31-11.09,0.59-22.18,0.87-33.27
		c0.07-2.88-0.98-7.53,0.3-8.28c2.58-1.53,6.42-0.95,9.73-1.21c0.36-0.03,0.73,0.13,1.64,0.31c0,4.16,0,8.44,0,12.71
		c-0.01,10.18-0.01,20.37-0.04,30.55c-0.06,17.97-12.98,28.37-29.52,28.12c-6.25-0.1-12.21-0.6-17.99-3.52
		c-9.12-4.6-13.26-12.39-13.64-21.83C546.03,681.12,546.47,666.32,546.47,650.59 M604.8,661.69v0.51c0.2-0.15,0.41-0.29,0.6-0.46
		c0.02-0.02-0.15-0.22-0.23-0.34C605.05,661.49,604.92,661.59,604.8,661.69"/>
	<path d="M308.13,796.9H278.7v19.26c9.33,0,19.05,0.31,28.73-0.1c7.63-0.33,10.08,1,8.02,10.92c-7.89,0.09-16.01,0.18-24.14,0.26
		c-4.81,0.05-9.62,0.09-14.42,0.12c-1.32,0.01-2.65,0.08-3.96-0.07c-5.72-0.68-6.12-1.23-6.14-6.93
		c-0.06-16.02-0.19-32.03-0.27-48.05c-0.02-3.91,0.03-7.82,0.01-11.73c-0.02-2.32,1.09-3.46,3.4-3.56c3.36-0.14,6.72-0.48,10.08-0.5
		c11.5-0.06,22.99-0.02,34.92-0.02v10.3h-36.09v19.89c6.48,0,13.55-0.05,20.61,0.01C307.96,786.78,308.8,784.89,308.13,796.9
		 M271.47,813.42c-0.71-0.21-0.98-0.36-1.25-0.35c-0.19,0.01-0.37,0.23-0.56,0.35H271.47z"/>
	<path d="M767.28,720.22c-8.72,0-16.53-0.07-24.35,0.02c-6.27,0.07-12.53,0.35-18.8,0.5c-1.31,0.03-2.85,0.25-3.87-0.33
		c-1.1-0.63-2.43-2.09-2.45-3.2c-0.16-13.68-0.17-27.37-0.07-41.05c0.05-7.12,0.95-14.27,0.4-21.33c-0.38-4.84,1.76-5.3,5.31-5.3
		c10,0,20.01-0.02,30.01-0.03c2.64,0,5.29,0.02,7.93,0.05c5.71,0.06,6.49,1.05,5.37,6.73c-0.18,0.92-0.29,1.85-0.48,3.05h-35.82
		v20.79c7,0,13.87,0.02,20.74,0c9.55-0.03,9.66,0.09,7.91,10.12h-28.54v20.18h35.9C766.75,713.73,767.02,717,767.28,720.22"/>
	<path d="M90.85,713.09c0.72-1.83,1.05-2.92,1.56-3.92c2.49-4.89,3.26-5.23,8.3-2.71c7.27,3.64,14.68,5.56,22.79,3.24
		c3.79-1.09,6.64-3.36,7.11-7.15c0.48-3.9-2.03-6.81-5.52-8.37c-6.5-2.91-13.11-5.58-19.69-8.34c-9.18-3.84-13.21-8.92-12.96-16.4
		c0.31-9.35,5.51-16.16,14.47-19.31c10.03-3.53,19.61-1.53,28.97,2.3c5.32,2.18,5.42,3.13,2.75,8.33c-0.32,0.63-0.46,1.36-0.92,2.8
		c-2.46-0.61-4.79-0.96-6.95-1.77c-5.66-2.14-11.31-3.95-17.43-2.15c-1.62,0.47-3.35,0.83-4.76,1.68
		c-5.91,3.57-5.74,10.36,0.55,13.27c4.92,2.28,10.25,3.64,15.28,5.71c3.61,1.49,7.19,3.21,10.49,5.28c6.59,4.12,9,10.39,7.98,17.93
		c-0.95,6.99-4.8,12.05-11.28,14.83c-11.72,5.03-23.37,4.03-34.79-1.04C94.65,716.34,92.89,714.55,90.85,713.09"/>
	<path d="M667.8,770.64c-3.86-1.28-7.31-2.95-10.93-3.5c-4.39-0.66-8.97-0.75-13.4-0.37c-3.46,0.3-6.73,4.43-6.98,7.9
		c-0.29,4.1,2.5,6.1,5.79,7.4c5.92,2.34,11.96,4.4,17.88,6.75c2.23,0.89,4.3,2.21,6.4,3.4c7.12,4.06,9.14,10.27,8.21,18.15
		c-0.88,7.47-5.32,11.98-11.63,14.62c-10.03,4.2-20.4,3.61-30.57,0.31c-3.59-1.16-6.9-3.2-10.9-5.1c2.24-3.39,3.96-6,5.65-8.56
		c4.93,1.74,9.4,3.67,14.06,4.86c5.51,1.41,11.13,1.68,16.42-1.28c6.07-3.4,6.5-10.29,0.47-13.73c-4.18-2.39-8.79-4.05-13.29-5.83
		c-5.9-2.34-11.93-4.07-16.55-9.09c-4.44-4.82-4.9-10.28-3.17-15.66c2.67-8.29,9-13.48,17.6-14.71c8.39-1.2,16.78-0.6,24.67,3.33
		c5.67,2.82,6.08,4.05,2.1,9.17C669.16,769.31,668.59,769.81,667.8,770.64"/>
	<path d="M338.99,811.37c7.92,3.53,15.32,7.07,23.69,5.8c2.85-0.43,5.94-1.35,8.22-3.01c4.82-3.51,3.38-11.05-2.62-13.76
		c-5.79-2.61-11.83-4.69-17.77-6.99c-4.79-1.86-9.01-4.25-12.02-8.79c-3.65-5.49-3.74-10.91-0.85-16.45
		c4.88-9.38,13.33-12.81,24.52-12.59c2.75,0.06,5.6,0.28,8.22,1.05c4.27,1.25,8.39,3.01,13.63,4.94c-1.44,3.35-2.68,6.24-4.01,9.33
		c-4.95-1.54-9.14-3.09-13.45-4.13c-4.84-1.17-9.69-1.02-14.2,1.58c-2.99,1.73-4.53,3.93-4.26,7.74c0.26,3.71,2.93,4.66,5.31,5.77
		c3.38,1.57,7.14,2.32,10.55,3.84c4.93,2.2,9.79,4.6,14.49,7.25c6.86,3.87,8.36,10.45,7.4,17.52c-0.99,7.26-5.48,12.21-12.36,14.75
		c-12.29,4.54-24.29,3.33-35.95-2.29c-3.8-1.83-4.02-2.91-1.86-6.45C336.63,814.89,337.69,813.36,338.99,811.37"/>
	<path d="M158.22,321.36c0.22,0.48,0.75,1.07,0.63,1.46c-2.18,7.12,1.29,13.52,2.42,20.22c0.71,4.18,0.3,8.57,1.24,12.67
		c1.52,6.69,3.75,13.21,5.64,19.82c0.52,1.8,1.02,3.62,1.36,5.46c1.88,10.02,7.26,18.69,10.78,28.08c1.77,4.69,3.56,9.38,5.19,14.12
		c0.23,0.68-0.41,1.66-0.46,1.86c2.3,2.43,4.94,4.76,6.98,7.53c2.04,2.78,1.03,8.45-1.41,10.87c-1.89,1.88-5.87,1.19-8.05-2.15
		c-3.77-5.8-7.33-11.77-10.41-17.96c-2.34-4.71-4.94-9.71-6.33-14.42c-2.1-7.13-5.74-13.71-7.11-21.07
		c-0.93-4.95-2.75-9.73-3.74-14.68c-1.34-6.69-2.37-13.44-3.29-20.2c-0.15-1.12,0.94-2.42,1.1-2.78c-0.82-1.57-1.94-2.77-2.01-4.04
		c-0.33-5.51-0.13-11.06-0.55-16.56C149.92,325.94,152.79,322.64,158.22,321.36 M177.01,405.53c-0.46-0.22-0.87-0.43-1.29-0.63
		c-0.08,0.28-0.31,0.64-0.21,0.81c0.16,0.29,0.54,0.46,0.83,0.69C176.51,406.17,176.69,405.94,177.01,405.53"/>
	<path d="M488.41,720.82v-61.25h-22.79v-9.54c0.99-0.21,1.69-0.48,2.38-0.48c16.42,0.02,32.84,0.01,49.25,0.15
		c7.12,0.06,8.11,1.45,7.21,9.71h-23.62c0,8.73-0.02,16.8,0.01,24.87c0.03,10.63,0.04,21.26,0.2,31.89
		c0.04,2.99-0.79,4.74-4.07,4.66C494.37,720.77,491.75,720.82,488.41,720.82"/>
	<path d="M180.98,649.55v70.49c-0.38,0.23-0.69,0.58-1,0.58c-8.77-0.1-11.6,3.31-11.2-9.69c0.55-17.81,0.13-35.65,0.17-53.48
		c0.02-7.96,0.06-7.96,8.19-7.9C178.07,649.55,179.01,649.55,180.98,649.55"/>
	<path d="M421.83,757.57v68.17c-0.88,0.49-1.2,0.81-1.53,0.84c-10.71,0.63-10.81,0.62-10.87-10.24c-0.1-17.42-0.08-34.83-0.08-52.25
		c0-6.73,1.73-8.22,8.4-7.28C419.02,756.98,420.28,757.27,421.83,757.57"/>
	<path d="M191.16,309.78c1.16,17.46,3.7,34.61,7.72,51.7c3.94,16.78,11.06,32.37,15.6,49.1c-1.7,0.02-3.26,0.05-4.89,0.07
		c-3.36-7.66-7.25-15.19-9.98-23.12c-2.96-8.64-4.89-17.64-7.17-26.5c-1.35-5.24-2.52-10.53-3.79-15.8
		c-0.09-0.36-0.54-0.79-0.44-1.01c3.14-7.11-2.68-14.07-0.24-21.36c0.91-2.72-0.65-6.2-0.59-9.32c0.03-1.47,1.23-2.91,1.89-4.37
		C189.9,309.37,190.53,309.58,191.16,309.78"/>
	<path d="M366.6,193.75c-6.34-3.38-6.19-3.53-4.11-8.63c2.75-6.74,7.24-12.04,12.68-16.62c1.81-1.53,3.99-2.81,6.22-3.59
		c1.51-0.52,4.68-0.4,4.88,0.19c0.6,1.76,0.89,4.53-0.11,5.76C379.88,178.63,373.22,186.09,366.6,193.75"/>
	<path d="M458.35,283.22c-0.14-0.82-0.28-1.64-0.41-2.47l1.05,0.02c-0.24,0.8-0.48,1.6-0.72,2.4L458.35,283.22z"/>
</g>
</svg>
